<?xml version="1.0" encoding="utf-8"?>
<!-- Generator: Adobe Illustrator 21.0.0, SVG Export Plug-In . SVG Version: 6.00 Build 0)  -->
<svg version="1.1" id="圖層_1" xmlns="http://www.w3.org/2000/svg" xmlns:xlink="http://www.w3.org/1999/xlink" x="0px" y="0px"
	 viewBox="0 0 35 35" style="enable-background:new 0 0 35 35;" xml:space="preserve">
<style type="text/css">
	.st0{fill:#FFFFFF;}
</style>
<path class="st0" d="M33.1,7.7l-1-1c-0.5-0.5-1.3-0.5-1.8,0c0,0,0,0,0,0L13.4,23.6l-8.7-8.7c-0.5-0.5-1.3-0.5-1.8,0c0,0,0,0,0,0
	l-1,1c-0.5,0.5-0.5,1.3,0,1.8c0,0,0,0,0,0l9.6,9.6l1,1c0.5,0.5,1.3,0.5,1.8,0c0,0,0,0,0,0l1-1L33.1,9.5C33.6,9,33.6,8.2,33.1,7.7
	C33.1,7.7,33.1,7.7,33.1,7.7z"/>
</svg>
