<?xml version="1.0" encoding="utf-8"?>
<!-- Generator: Adobe Illustrator 21.0.0, SVG Export Plug-In . SVG Version: 6.00 Build 0)  -->
<svg version="1.1" id="圖層_1" xmlns="http://www.w3.org/2000/svg" xmlns:xlink="http://www.w3.org/1999/xlink" x="0px" y="0px"
	 viewBox="0 0 480 480" style="enable-background:new 0 0 480 480;" xml:space="preserve">
<style type="text/css">
	.st0{fill:#5D9DF5;}
</style>
<path class="st0" d="M411.9,251.3c5.3,15.5,21,25.5,37.5,23.4c17.4-2.2,30.6-17.1,30.6-34.7c0-17.6-13.1-32.5-30.6-34.7
	c-16.5-2.1-32.2,7.8-37.5,23.4H306.5v-71.9h36c14.9,0,27.1-12.2,27.1-27.1V58.6c0-2.4,2-4.4,4.4-4.4h38c5.3,15.5,21,25.5,37.5,23.4
	c17.4-2.2,30.6-17.1,30.6-34.7c0-17.6-13.1-32.5-30.6-34.7c-16.5-2.1-32.2,7.8-37.5,23.4h-38c-14.9,0-27.1,12.2-27.1,27.1v70.9
	c0,2.4-2,4.4-4.4,4.4h-36V66.5c0-18.9-16-36-45-48.2C233.4,6.5,195,0,153.2,0S73,6.5,45,18.3C16,30.5,0,47.6,0,66.5v346.9
	c0,18.9,16,36,45,48.2c28.1,11.8,66.5,18.3,108.2,18.3s80.2-6.5,108.2-18.3c29-12.2,45-29.3,45-48.2v-36h36c2.4,0,4.4,2,4.4,4.4
	v47.3c0,14.9,12.2,27.1,27.1,27.1h38c4.8,14.2,18.3,23.7,33.1,23.7c1.5,0,2.9-0.1,4.4-0.3c17.4-2.2,30.6-17.1,30.6-34.7
	c0-17.6-13.1-32.5-30.6-34.7c-16.5-2.1-32.2,7.8-37.5,23.4h-38c-2.4,0-4.4-2-4.4-4.4v-47.3c0-14.9-12.2-27.1-27.1-27.1h-36V251.3
	H411.9z M432.6,239.9c0-6.8,5.5-12.3,12.3-12.3c6.8,0,12.3,5.5,12.3,12.3s-5.5,12.3-12.3,12.3C438.1,252.3,432.6,246.7,432.6,239.9z
	 M432.6,42.9c0-6.8,5.5-12.3,12.3-12.3c6.8,0,12.3,5.5,12.3,12.3s-5.5,12.3-12.3,12.3C438.1,55.2,432.6,49.7,432.6,42.9z
	 M283.8,331.1v82.2c0,18.3-49.7,43.8-130.6,43.8S22.7,431.7,22.7,413.4v-82.2c27,19.2,75,30.5,130.6,30.5
	C208.8,361.6,256.8,350.3,283.8,331.1z M153.2,339c-80.9,0-130.6-25.5-130.6-43.8v-74.4c27,19.2,75,30.5,130.6,30.5
	c55.6,0,103.5-11.3,130.6-30.5v74.4C283.8,313.4,234.1,339,153.2,339z M153.2,228.6c-80.9,0-130.6-25.5-130.6-43.8v-82.2
	c27,19.2,75,30.5,130.6,30.5c55.6,0,103.5-11.3,130.6-30.5v82.2C283.8,203.1,234.1,228.6,153.2,228.6z M153.2,110.4
	c-80.9,0-130.6-25.5-130.6-43.8s49.7-43.8,130.6-43.8s130.6,25.5,130.6,43.8S234.1,110.4,153.2,110.4z M432.6,444.9
	c0-6.8,5.5-12.3,12.3-12.3c6.8,0,12.3,5.5,12.3,12.3s-5.5,12.3-12.3,12.3C438.1,457.2,432.6,451.7,432.6,444.9z"/>
</svg>
