<?xml version="1.0" encoding="iso-8859-1"?>
<!-- Generator: Adobe Illustrator 19.0.0, SVG Export Plug-In . SVG Version: 6.00 Build 0)  -->
<svg version="1.1" id="Layer_1" xmlns="http://www.w3.org/2000/svg" xmlns:xlink="http://www.w3.org/1999/xlink" x="0px" y="0px"
	 viewBox="0 0 426.667 426.667" style="enable-background:new 0 0 426.667 426.667;" xml:space="preserve">
<g>
	<g>
		<g>
			<path d="M213.333,149.333c-89.088,0-153.408-17.984-192-43.349v43.349c0,16.405,47.275,64,192,64s192-47.595,192-64v-43.349
				C366.741,131.349,302.421,149.333,213.333,149.333z"/>
			<path d="M21.333,212.651V256c0,16.405,47.275,64,192,64s192-47.595,192-64v-43.349C366.741,238.016,302.421,256,213.333,256
				S59.925,238.016,21.333,212.651z"/>
			<path d="M213.333,106.667c110.827,0,164.373-27.883,183.467-48.32C371.285,19.968,292.011,0,213.333,0
				S55.381,19.968,29.867,58.347C48.96,78.784,102.507,106.667,213.333,106.667z"/>
			<path d="M21.333,319.317v22.016c0,56.021,96.576,85.333,192,85.333s192-29.312,192-85.333v-22.016
				c-38.592,25.365-102.912,43.349-192,43.349S59.925,344.683,21.333,319.317z"/>
		</g>
	</g>
</g>
<g>
</g>
<g>
</g>
<g>
</g>
<g>
</g>
<g>
</g>
<g>
</g>
<g>
</g>
<g>
</g>
<g>
</g>
<g>
</g>
<g>
</g>
<g>
</g>
<g>
</g>
<g>
</g>
<g>
</g>
</svg>
