<?xml version="1.0" encoding="iso-8859-1"?>
<!-- Generator: Adobe Illustrator 19.0.0, SVG Export Plug-In . SVG Version: 6.00 Build 0)  -->
<svg version="1.1" id="Capa_1" xmlns="http://www.w3.org/2000/svg" xmlns:xlink="http://www.w3.org/1999/xlink" x="0px" y="0px"
	 viewBox="0 0 512 512" style="enable-background:new 0 0 512 512;" xml:space="preserve">
<g>
	<g>
		<path d="M467,106h-77.58c-6.192-17.459-22.865-30-42.42-30h-16.507C323.524,41.809,293.219,16,257,16
			c-37.326,0-68.367,26.761-75.429,60H165c-19.555,0-36.228,12.541-42.42,30H45c-24.813,0-45,20.187-45,45v300
			c0,24.813,20.187,45,45,45h422c24.813,0,45-20.187,45-45V151C512,126.187,491.813,106,467,106z M150,121c0-8.271,6.729-15,15-15
			h30c8.284,0,15-6.716,15-15c0-24.393,21.523-45,47-45c24.813,0,45,20.187,45,45c0,8.284,6.716,15,15,15h30c8.271,0,15,6.729,15,15
			v30c0,8.271-6.729,15-15,15H165c-8.271,0-15-6.729-15-15V121z M482,451c0,8.271-6.729,15-15,15H45c-8.271,0-15-6.729-15-15V151
			c0-8.271,6.729-15,15-15h75v15c0,24.813,20.187,45,45,45h182c24.813,0,45-20.187,45-45v-15h75c8.271,0,15,6.729,15,15V451z"/>
	</g>
</g>
<g>
	<g>
		<path d="M443.337,295.087l-57.584-8.368L360,234.538c-5.49-11.123-21.408-11.133-26.902,0l-25.752,52.181l-57.584,8.368
			c-12.276,1.783-17.203,16.919-8.313,25.585l41.669,40.617l-9.837,57.352c-2.097,12.226,10.775,21.59,21.764,15.813l51.505-27.078
			l51.506,27.078c10.98,5.772,23.863-3.577,21.764-15.813l-9.837-57.352l41.669-40.617
			C460.533,312.013,455.623,296.871,443.337,295.087z M383.395,345.311c-3.535,3.446-5.148,8.411-4.314,13.277l6.032,35.169
			l-31.584-16.604c-4.369-2.297-9.59-2.298-13.96,0l-31.583,16.604l6.032-35.169c0.834-4.866-0.779-9.831-4.314-13.277
			l-25.552-24.907l35.312-5.131c4.885-0.71,9.109-3.779,11.294-8.206l15.792-31.998l15.792,31.998
			c2.185,4.427,6.409,7.496,11.294,8.206l35.311,5.131L383.395,345.311z"/>
	</g>
</g>
<g>
	<g>
		<path d="M195,256H75c-8.284,0-15,6.716-15,15s6.716,15,15,15h120c8.284,0,15-6.716,15-15S203.284,256,195,256z"/>
	</g>
</g>
<g>
	<g>
		<path d="M195,316H75c-8.284,0-15,6.716-15,15s6.716,15,15,15h120c8.284,0,15-6.716,15-15S203.284,316,195,316z"/>
	</g>
</g>
<g>
	<g>
		<path d="M195,376H75c-8.284,0-15,6.716-15,15s6.716,15,15,15h120c8.284,0,15-6.716,15-15S203.284,376,195,376z"/>
	</g>
</g>
<g>
	<g>
		<circle cx="257" cy="91" r="15"/>
	</g>
</g>
<g>
</g>
<g>
</g>
<g>
</g>
<g>
</g>
<g>
</g>
<g>
</g>
<g>
</g>
<g>
</g>
<g>
</g>
<g>
</g>
<g>
</g>
<g>
</g>
<g>
</g>
<g>
</g>
<g>
</g>
</svg>
