<svg id="Capa_1" enable-background="new 0 0 512 512" height="512" viewBox="0 0 512 512" width="512" xmlns="http://www.w3.org/2000/svg"><g><path d="m477 0h-442c-19.299 0-35 15.701-35 35v300c0 19.299 15.701 35 35 35h126v25c0 19.299 15.701 35 35 35h5v67c0 8.284 6.716 15 15 15h80c8.284 0 15-6.716 15-15v-67h5c19.299 0 35-15.701 35-35v-25h126c19.299 0 35-15.701 35-35v-300c0-19.299-15.701-35-35-35zm-196 482h-50v-52h50zm40-87c0 2.757-2.243 5-5 5h-120c-2.757 0-5-2.243-5-5v-25h130zm161-60c0 2.757-2.243 5-5 5h-141-160-141c-2.757 0-5-2.243-5-5v-300c0-2.757 2.243-5 5-5h442c2.757 0 5 2.243 5 5z"/><path d="m235 200h-65v-65c0-8.284-6.716-15-15-15-52.383 0-95 42.617-95 95s42.617 95 95 95 95-42.617 95-95c0-8.284-6.716-15-15-15zm-145 15c0-30.681 21.365-56.464 50-63.253v63.253c0 1.803.335 3.524.918 5.126l-.013.005 21.628 59.422c-2.473.286-4.984.447-7.533.447-35.841 0-65-29.159-65-65zm100.716 54.273-14.294-39.273h41.831c-3.871 16.329-13.925 30.286-27.537 39.273z"/><path d="m205 70c-8.284 0-15 6.716-15 15v80c0 8.284 6.716 15 15 15h80c8.284 0 15-6.716 15-15 0-52.383-42.617-95-95-95zm15 80v-48.253c23.818 5.647 42.606 24.435 48.253 48.253z"/><path d="m442 160h-5v-25c0-8.284-6.716-15-15-15s-15 6.716-15 15v25h-5c-8.284 0-15 6.716-15 15s6.716 15 15 15h5v105c0 8.284 6.716 15 15 15s15-6.716 15-15v-105h5c8.284 0 15-6.716 15-15s-6.716-15-15-15z"/><path d="m366 240h-5v-105c0-8.284-6.716-15-15-15s-15 6.716-15 15v105h-5c-8.284 0-15 6.716-15 15s6.716 15 15 15h5v25c0 8.284 6.716 15 15 15s15-6.716 15-15v-25h5c8.284 0 15-6.716 15-15s-6.716-15-15-15z"/><circle cx="422" cy="70" r="15"/><circle cx="346" cy="70" r="15"/></g></svg>