<svg id="bold" xmlns="http://www.w3.org/2000/svg" viewBox="0 0 512 512"><defs><style>.cls-1{fill:#ffe777;}.cls-2{fill:#ffd200;}</style></defs><title>回報</title><path class="cls-1" d="M261.45,42.6H238a58.9,58.9,0,0,0-113.2,0h-23.4a16,16,0,0,0-16,16v32a37.6,37.6,0,0,0,37.4,37.4H240a37.6,37.6,0,0,0,37.4-37.4v-32A16.31,16.31,0,0,0,261.45,42.6Z"/><path class="cls-2" d="M304,64h-5.4V90.6A58.55,58.55,0,0,1,240,149.2H122.65A58.55,58.55,0,0,1,64,90.6V64h-5.4A58.55,58.55,0,0,0,0,122.6V389.2a58.55,58.55,0,0,0,58.6,58.6h104.6a81.17,81.17,0,0,1,10.8-24l31.2-50.6H80a16,16,0,0,1,0-32h144.8L248,304H80a16,16,0,1,1,0-32h187.6l18-29c14.4-24.6,42-40.4,72-40.4a50.56,50.56,0,0,1,5.4.2V122.6A59.15,59.15,0,0,0,304,64Zm-21.4,170.6H80a16,16,0,0,1,0-32h202.6a16,16,0,0,1,0,32Z"/><path class="cls-1" d="M505.85,448.6l-112.6-183a41.75,41.75,0,0,0-71.4-.2L209.45,448a40.43,40.43,0,0,0-6.8,22.4,41.74,41.74,0,0,0,41.8,41.6H470a41.74,41.74,0,0,0,41.8-41.6,38.7,38.7,0,0,0-6-21.8Zm-148.4,20.8a21.4,21.4,0,1,1,21.4-21.4A21.42,21.42,0,0,1,357.45,469.4Zm21.2-74.8a21.4,21.4,0,1,1-42.8,0V352a21.4,21.4,0,1,1,42.8,0v42.6Z"/></svg>