<?xml version="1.0" encoding="iso-8859-1"?>
<!-- Generator: Adobe Illustrator 19.0.0, SVG Export Plug-In . SVG Version: 6.00 Build 0)  -->
<svg version="1.1" id="Capa_1" xmlns="http://www.w3.org/2000/svg" xmlns:xlink="http://www.w3.org/1999/xlink" x="0px" y="0px"
	 viewBox="0 0 512.262 512.262" style="enable-background:new 0 0 512.262 512.262;" xml:space="preserve">
<g>
	<g>
		<g>
			<path d="M512.131,279.328c-0.107-57.68-36.549-109.033-90.96-128.176l42.592-16.496L452.195,104.8l-99.312,38.512l38.48,99.296
				l29.84-11.552l-20.384-52.64c46.5,11.393,79.23,53.037,79.312,100.912c2.996,49.863-34.998,92.714-84.861,95.709
				c-1.759,0.106-3.521,0.16-5.283,0.163l-255.84-223.872h-6.016c-67.563-3.13-124.87,49.103-128,116.666
				c-0.175,3.776-0.175,7.558,0,11.334c0,72.976,58.464,128,136,128v-32c-60.272,0-104-40.368-104-96
				c-2.996-49.863,34.998-92.714,84.861-95.709c1.759-0.106,3.521-0.16,5.283-0.163l255.84,223.872h6.016
				c67.563,3.13,124.87-49.103,128-116.666C512.306,286.887,512.306,283.104,512.131,279.328z"/>
			<rect x="176.131" y="375.328" width="32" height="32"/>
		</g>
	</g>
</g>
<g>
</g>
<g>
</g>
<g>
</g>
<g>
</g>
<g>
</g>
<g>
</g>
<g>
</g>
<g>
</g>
<g>
</g>
<g>
</g>
<g>
</g>
<g>
</g>
<g>
</g>
<g>
</g>
<g>
</g>
</svg>
