<svg id="圖層_1" data-name="圖層 1" xmlns="http://www.w3.org/2000/svg" viewBox="0 0 512 512"><g id="Layer_44" data-name="Layer 44"><path d="M23.87,25.65V256.51A179.55,179.55,0,0,0,203.42,436.06h92.09l-33.09,33.6a25.65,25.65,0,0,0,36.17,36.17l77-77,.15-.15a25.65,25.65,0,0,0-.15-36.28l-77-77a25.65,25.65,0,0,0-36.17,36.17l33.09,33.09H203.42A128.25,128.25,0,0,1,75.17,256.51V25.65a25.65,25.65,0,0,0-51.3,0Z"/></g><polygon points="385.53 122.64 385.53 20.04 334.23 20.04 334.23 122.64 231.63 122.64 231.63 173.94 334.23 173.94 334.23 276.55 385.53 276.55 385.53 173.94 488.13 173.94 488.13 122.64 385.53 122.64"/></svg>