<?xml version="1.0" encoding="utf-8"?>
<!-- Generator: Adobe Illustrator 21.0.0, SVG Export Plug-In . SVG Version: 6.00 Build 0)  -->
<svg version="1.1" id="圖層_1" xmlns="http://www.w3.org/2000/svg" xmlns:xlink="http://www.w3.org/1999/xlink" x="0px" y="0px"
	 viewBox="0 0 400 300" style="enable-background:new 0 0 400 300;" xml:space="preserve">
<title>工作區域 1 複本 3</title>
<path d="M391.5,0H8.5C3.8,0,0,3.8,0,8.5V211h-0.5v7H0v73.5c0,4.7,3.8,8.5,8.5,8.5l0,0h383c4.7,0,8.5-3.8,8.5-8.5l0,0V8.5
	C400,3.8,396.2,0,391.5,0z M7,8.5C7,7.7,8.1,7,9.4,7H393v204H7V8.5z M7,291.5V218h386v75H9.4C8.1,293,7,292.3,7,291.5z"/>
</svg>
